<svg xmlns="http://www.w3.org/2000/svg" viewBox="0 0 841.9 595.3">
  <g fill="#61DAFB">
    <circle cx="420.9" cy="296.3" r="45.7"/>
    <path d="M520.5 78.1c-18.2-33.7-46.1-60.6-80.2-78.2-35-18.1-73.7-27.8-113.6-27.8-39.9 0-78.6 9.8-113.6 27.8C139.6 17.5 111.7 44.4 93.5 78.1 75.6 111.1 66 147.4 66 184.9c0 37.5 9.6 73.8 27.5 106.7 18.2 33.7 46.1 60.6 80.2 78.2 35 18.1 73.7 27.8 113.6 27.8 39.9 0 78.6-9.8 113.6-27.8 34.1-17.7 62-44.6 80.2-78.2 17.9-32.9 27.5-69.2 27.5-106.7 0-37.5-9.6-73.8-27.5-106.8z"/>
  </g>
</svg>
